<svg width="48" height="48" viewBox="0 0 48 48" fill="none" xmlns="http://www.w3.org/2000/svg">
<path d="M22.556 12.2678C22.5833 12.0718 22.4923 11.878 22.324 11.7738C19.8 10.1998 14.066 7.71783 3.014 7.57383C2.46177 7.5661 2.00783 8.00748 2.0001 8.55972C2.00003 8.56442 2 8.56911 2 8.57383V40.1039C2 40.6508 2.43929 41.0961 2.98611 41.1039C13.2881 41.2359 18.9741 43.4039 21.7561 44.9679C21.9094 45.0569 22.0987 45.0569 22.2521 44.9679C22.4057 44.8783 22.5002 44.7137 22.5001 44.5359V12.8918C22.5058 12.6829 22.5245 12.4745 22.556 12.2678Z" fill="#3D55F9"/>
<path d="M38.5 34.8919C38.4989 35.6226 37.972 36.2463 37.252 36.3698C34.0096 37.0007 31.0245 38.5711 28.668 40.8858C27.8805 41.7602 27.1917 42.7186 26.614 43.7439C26.4802 43.9855 26.5675 44.2898 26.8091 44.4236C26.9515 44.5026 27.1235 44.5071 27.2701 44.4359C32.8731 42.0516 38.9277 40.9146 45.0141 41.1039C45.5608 41.0962 46 40.6506 46 40.1039V8.57381V8.57373C46 8.02144 45.5523 7.57373 45 7.57373C44.9952 7.57373 44.9907 7.57376 44.9859 7.57384C42.7579 7.60184 40.7579 7.73181 38.9459 7.92581C38.6917 7.95344 38.4995 8.16824 38.5 8.42384V34.8919Z" fill="#3D55F9"/>
<path d="M35.136 33.7998C35.3512 33.7382 35.4997 33.5417 35.5 33.3177V3.46782C35.5003 3.19166 35.2765 2.96758 35.0005 2.96729C34.9416 2.96723 34.8832 2.97755 34.828 2.99782C32.4923 3.78163 30.3797 5.11582 28.668 6.88782C26.996 8.50766 25.8858 10.6199 25.5 12.9158V38.6198C25.4998 38.8958 25.7234 39.1201 25.9996 39.1201C26.1438 39.1204 26.281 39.0582 26.376 38.9497L26.422 38.8977C28.8027 36.4294 31.8179 34.6654 35.136 33.7998Z" fill="#3D55F9"/>
<rect x="0.5" y="0.5" width="47" height="47" stroke="#3D55F9" stroke-opacity="0.08"/>
</svg>
