<svg width="56" height="56" viewBox="0 0 56 56" fill="none" xmlns="http://www.w3.org/2000/svg">
<path d="M56 0H0V56H56V0Z" fill="#3D55F9"/>
<path d="M32.9869 2.0502C35.7206 4.7839 35.7206 9.2161 32.9869 11.9497C30.2531 14.6834 25.821 14.6834 23.0874 11.9497C20.3537 9.2161 20.3537 4.7839 23.0874 2.0502C25.821 -0.6834 30.2531 -0.6834 32.9869 2.0502Z" fill="white"/>
<path d="M54.7425 21.014C53.2578 19.7762 51.0507 19.9763 49.8131 21.461C49.8126 21.4614 49.8124 21.4617 49.8121 21.462C48.7859 22.6928 47.2707 23.4103 45.6681 23.4243H45.6145C44.0308 23.425 42.5256 22.7359 41.4915 21.5367C39.7135 19.488 39.7135 19.4694 39.5548 19.313C38.3933 18.1489 36.815 17.4963 35.1705 17.5H20.8298C19.1858 17.4959 17.6083 18.1486 16.4478 19.313C16.2868 19.4694 16.2611 19.5184 14.5111 21.5367C13.476 22.736 11.97 23.425 10.3858 23.4243H10.3321C8.73041 23.4117 7.21511 22.696 6.18811 21.4667C4.88741 20.0368 2.67371 19.9322 1.24391 21.233C-0.101595 22.4571 -0.285194 24.5077 0.821506 25.9513C3.16151 28.7555 6.61471 30.391 10.2668 30.4243H10.3858C13.5403 30.4376 16.5788 29.2353 18.8698 27.0667C19.1048 26.8464 19.474 26.8583 19.6943 27.0933C19.7955 27.2011 19.8519 27.3434 19.8521 27.4913L19.8825 39.76C19.8841 40.2537 20.1962 40.6929 20.6618 40.8567L27.2255 43.1737C27.7276 43.3508 28.275 43.3508 28.7771 43.1737L35.3385 40.8567C35.804 40.6929 36.1162 40.2537 36.1178 39.76L36.1481 27.4867C36.1486 27.1644 36.4102 26.9038 36.7324 26.9043C36.8803 26.9045 37.0224 26.9607 37.1305 27.062C39.4216 29.2301 42.46 30.4318 45.6145 30.4173H45.7335C49.3907 30.3861 52.849 28.7467 55.1881 25.935C56.4206 24.4519 56.2211 22.2515 54.7425 21.014Z" fill="white"/>
<path d="M41.6965 41.0946L33.0632 44.1419C32.8305 44.2234 32.6749 44.4434 32.6758 44.6903C32.6761 44.9369 32.831 45.1572 33.0632 45.2409L38.0448 47.0003C38.8545 47.2833 39.5911 47.7432 40.2008 48.3466C40.5186 48.6609 40.9881 48.7659 41.4095 48.6173L44.0228 47.6839C45.8344 47.0096 46.7566 44.9945 46.0825 43.1829C45.4238 41.4131 43.4801 40.4849 41.6895 41.0853L41.6965 41.0946Z" fill="white"/>
<path d="M37.2703 49.2013L14.3057 41.0953C12.4941 40.421 10.4789 41.3431 9.80472 43.1547C9.13052 44.9663 10.0526 46.9816 11.8642 47.6557C11.9 47.669 11.9361 47.6818 11.9723 47.694L34.937 55.8C35.3115 55.9334 35.7061 56.0014 36.1037 56.0007C38.0366 55.9997 39.603 54.4322 39.6023 52.4992C39.6016 51.0171 38.6675 49.696 37.2703 49.2013Z" fill="white"/>
</svg>
