<svg width="56" height="56" viewBox="0 0 56 56" fill="none" xmlns="http://www.w3.org/2000/svg">
<path d="M56 0H0V56H56V0Z" fill="#3D55F9"/>
<path d="M46.9339 7.6258C44.4494 2.6057 38.3977 0.566152 33.4173 3.07046C32.4419 3.56082 31.5522 4.20728 30.7824 4.98475L28.7915 6.99154C28.3542 7.43212 27.6453 7.43212 27.2082 6.99154L25.215 4.98475C21.2768 1.0153 14.8918 1.0153 10.9536 4.98475C7.01546 8.95419 7.01546 15.39 10.9536 19.3593L25.9361 35.1132C27.0283 36.2615 28.8375 36.2996 29.9764 35.1987C30.0053 35.1707 30.0335 35.1423 30.0613 35.1132L45.0437 19.3593C48.1155 16.2669 48.8771 11.539 46.9339 7.6258Z" fill="white"/>
<path d="M10.2184 37.788C8.88041 38.6794 8.43774 40.4379 9.19454 41.8546L12.1765 46.8003C12.495 47.3283 12.3244 48.0138 11.7954 48.3317C11.2664 48.6496 10.5793 48.4794 10.2608 47.9514L7.23866 42.9322C6.32529 41.1687 6.43206 39.0517 7.51808 37.3887C7.63992 37.2065 7.70528 36.9922 7.70588 36.773V30.3462C7.70588 28.4982 6.20474 27 4.35294 27C2.50114 27 1 28.4982 1 30.3462V41.8814V41.8837C1 44.1638 1.77776 46.376 3.20536 48.1562L9.15882 55.5806C9.37058 55.8451 9.6913 55.9995 10.0306 56H18.8824C19.4996 56 20 55.5005 20 54.8846V48.17V48.1698C20.0019 46.1846 19.4129 44.2436 18.3078 42.5931C14.0898 38.2096 12.771 36.0881 10.2184 37.788Z" fill="white"/>
<path d="M51.6471 27C49.7954 27 48.2941 28.4982 48.2941 30.3462V36.773C48.2947 36.9922 48.36 37.2065 48.4818 37.3887C49.5679 39.0517 49.6746 41.1687 48.7612 42.9322L45.7392 47.9514C45.4206 48.4794 44.7337 48.6496 44.2046 48.3317C43.6755 48.0138 43.505 47.3283 43.8235 46.8003L46.8054 41.8546C47.5623 40.4379 47.1194 38.6794 45.7816 37.788C43.2289 36.0881 41.9101 38.2096 37.6921 42.5997C36.587 44.2505 35.998 46.1915 36 48.1767V54.8846C36 55.5005 36.5005 56 37.1177 56H45.9694C46.3087 55.9995 46.6294 55.8451 46.8412 55.5806L52.7959 48.1544C54.2232 46.3737 55.0004 44.1615 55 41.8814V30.3462C55 28.4982 53.4988 27 51.6471 27Z" fill="white"/>
</svg>
