<svg width="60" height="14" viewBox="0 0 60 14" fill="none" xmlns="http://www.w3.org/2000/svg">
<path fill-rule="evenodd" clip-rule="evenodd" d="M37.6385 13.0685L38.1583 12.955C38.6232 12.8635 38.9282 12.6897 38.9282 12.1031V2.34797L37.6385 1.62784V1.09804L41.0259 0H41.276V12.1031C41.276 12.7089 41.6229 12.8983 42.0841 12.9926L42.5267 13.0685V13.8078H37.6385V13.0685ZM41.488 8.8831L43.7587 6.6871C44.5286 5.9294 44.4328 5.3996 43.6053 5.2477L42.9888 5.1342V4.39582H47.743V5.1342L47.2465 5.2312C46.6951 5.3249 46.1891 5.5909 45.8034 5.9898L43.6434 8.0678L47.9355 13.1829L47.7625 13.8646H45.4147L41.488 8.8831ZM29.7666 0.39722C26.1673 0.39722 22.991 3.12493 22.991 7.3862C22.991 11.3264 25.84 13.9973 29.5165 13.9973C33.3083 13.9973 36.3294 11.4023 36.3294 7.1785C36.3294 3.12493 33.5008 0.39722 29.7666 0.39722ZM29.5546 1.60964C31.9601 1.60964 33.5194 3.69317 33.5194 7.3862C33.5194 10.9851 31.9973 12.7849 29.7852 12.7849C27.4569 12.7849 25.8009 10.6822 25.8009 7.0266C25.8009 3.33264 27.4374 1.60964 29.5546 1.60964ZM13.9474 4.95665V6.7556C12.3451 6.7575 10.809 7.3848 9.67593 8.4998C8.76151 9.3997 8.16992 10.5579 7.97464 11.8003H13.9474V13.5992H0V11.8003H6.00478C5.80925 10.5496 5.21422 9.3835 4.29386 8.4778C3.1549 7.357 1.61072 6.7264 0 6.7245V4.92188C1.43891 4.92287 2.85029 5.31 4.08222 6.0417C5.31415 6.7734 6.31996 7.8219 6.99138 9.0743C7.66185 7.8312 8.66352 6.7913 9.88896 6.0659C11.1144 5.3405 12.5174 4.95701 13.9474 4.95665ZM49.9755 6.3825V10.91C49.9755 13.0311 51.4196 13.9974 52.8255 13.9974C54.2834 13.9974 55.5536 13.1253 56.2658 12.1032V14.0001H56.7084L60 13.3751V12.6715L59.3491 12.6147C58.7522 12.5388 58.5021 12.311 58.5021 11.8379V4.1333H58.0213L54.6907 4.73722V5.4198L55.3258 5.5113C55.9032 5.5681 56.1338 5.8142 56.1338 6.3825V11.6723C55.5218 12.0492 54.8157 12.2522 54.0937 12.2588C53.2123 12.2588 52.3271 11.9184 52.3271 10.3272V4.1333H51.8622L48.5901 4.73722V5.4198L49.187 5.5113C49.7449 5.5873 49.9755 5.8142 49.9755 6.3825Z" fill="black"/>
</svg>
